Simulation
nRows=27
nColumns=15
endheader
time  TH_x TH_y TH_z SC_y  SC_z  SC_x  AC_y  AC_z  AC_x  GH_y  GH_z  GH_yy  EL_x  PS_y
0.0  0.000000  0.000000  0.000000  -22.75130714163934  4.591603844858906  -6.325145029520415  56.981820186060375  8.638985547502054  7.525368702344012  -155.55248555364582  4.061549326558475  -166.85995496609203  20.854125550110062  120.000000
0.04016479400749064  0.000000  0.000000  0.000000  -22.775702324716224  4.6114149023425615  -6.304658239687575  56.94931662512438  8.690818533067876  7.510650451739404  -154.56171804230945  3.923663537161247  -167.94441027479527  20.342468916013846  120.000000
0.08032958801498127  0.000000  0.000000  0.000000  -22.85045712007381  4.67088716890115  -6.247740119274432  56.84631370313974  8.838216868400885  7.460738907145372  -151.06156902305693  3.5265849986217117  -171.73014702901935  19.835106748489316  120.000000
0.12049438202247191  0.000000  0.000000  0.000000  -22.985610128817456  4.769688732419631  -6.167119086572865  56.66111522721409  9.061120385244301  7.3732982002770076  -143.1420640178449  2.9301446200351773  179.864963226896  19.31686264245338  120.000000
0.16065917602996255  0.000000  0.000000  0.000000  -23.19237249914129  4.9033693275671  -6.0794819415532775  56.38610549323765  9.336419779572077  7.253611492095162  -126.04649466243421  2.2852437768448026  162.0799413615699  18.77783580727608  120.000000
0.20082397003745317  0.000000  0.000000  0.000000  -23.481746957581574  5.066023029549149  -5.9976482049518385  56.02268474444817  9.643414858585723  7.107587074722102  -93.30166737355894  1.9839007006477842  128.44456702627969  18.212053992513916  120.000000
0.24098876404494382  0.000000  0.000000  0.000000  -23.865364607401037  5.255216618910472  -5.925844713755323  55.578480248054596  9.96515073170305  6.9430314431465625  -58.49072820913988  2.5295571520487536  92.54999371290151  17.620469403844815  120.000000
0.28115355805243447  0.000000  0.000000  0.000000  -24.34719231582595  5.47017121513283  -5.860230532794011  55.067794818906464  10.290629994030462  6.766677282398865  -38.8822522164652  3.781172880749971  71.67840800304744  17.007565508957285  120.000000
0.3213183520599251  0.000000  0.000000  0.000000  -24.926478020555933  5.711742969280686  -5.789479505584939  54.50906728061129  10.613761270097852  6.584473450795728  -29.051666358613385  5.414345385673486  60.42365998391402  16.381255726193743  120.000000
0.3614831460674157  0.000000  0.000000  0.000000  -25.598369531733763  5.982063783223982  -5.6971429868929935  53.92179679023076  10.930999054783568  6.401075521851226  -23.64512554213735  7.28814624380203  53.45314231266141  15.751370354935505  120.000000
0.40164794007490634  0.000000  0.000000  0.000000  -26.35466199594306  6.282611663507177  -5.56669903755263  53.325640924843874  11.240990996103767  6.220844493482866  -20.406315655067488  9.344297440806162  48.5351942123963  15.127602292040812  120.000000
0.441812734082397  0.000000  0.000000  0.000000  -27.18494089015289  6.613761668632565  -5.38302408933884  52.73826977611469  11.542335653011808  6.048067634246856  -18.371986497921178  11.549537057411266  44.732404385971876  14.5190678592268  120.000000
0.48197752808988764  0.000000  0.000000  0.000000  -28.077227006213025  6.975351456455585  -5.129816173341941  52.17609501043656  11.83023646499414  5.885374675156118  -17.081537338415853  13.878166600728159  41.61169198710201  13.933542789332357  120.000000
0.5221423220973783  0.000000  0.000000  0.000000  -29.018644208961504  7.366371741317339  -4.78894241023531  51.65430866972257  12.095993861971037  5.732736616399255  -16.286447583606588  16.306012878909698  38.95203347563759  13.37706199901323  120.000000
0.5623071161048689  0.000000  0.000000  0.000000  -29.99603274268559  7.784500984227479  -4.347111500356671  51.186456197894664  12.332662744125894  5.591190261215897  -15.836422976061021  18.808548626505992  36.63008671016531  12.853351762357578  120.000000
0.6024719101123596  0.000000  0.000000  0.000000  -30.996338274083044  8.226816693276124  -3.800390954160122  50.78356449802498  12.538944990268822  5.466200095909313  -15.630227193387075  21.360771745394313  34.569608348931396  12.363988006290935  120.000000
0.6426367041198502  0.000000  0.000000  0.000000  -32.00699013440504  8.69000701662971  -3.1495166531204024  50.45422859268197  12.716526475066498  5.365136197103296  -15.59321554984509  23.93817276204761  32.71802387871739  11.908302458264039  120.000000
0.6828014981273408  0.000000  0.000000  0.000000  -33.01571866186285  9.170288781914495  -2.397975598031746  50.20449254084383  12.869622160626879  5.29602365407281  -15.668278224813276  26.51726026083881  31.036391402562806  11.483329940711739  120.000000
0.7229662921348314  0.000000  0.000000  0.000000  -34.010254782123994  9.663334404239423  -1.5504212567302433  50.0374651668989  13.004307820922033  5.266529005551878  -15.811360743964604  29.075639041836983  29.494264685906117  11.0838132230293  120.000000
0.7631310861423221  0.000000  0.000000  0.000000  -34.97829738350943  10.163954730782509  -0.6113646196261032  49.95293372019365  13.127657608901123  5.282820788798611  -15.98998988340776  31.59206583614336  28.068115182332956  10.70261492389425  120.000000
0.8032958801498127  0.000000  0.000000  0.000000  -35.9075273437827  10.666102189798664  0.4138640668536007  49.94683158315729  13.247789254529353  5.349504455275953  -16.182264594670702  34.04666367585755  26.740682549295187  10.331573575246631  120.000000
0.8434606741573034  0.000000  0.000000  0.000000  -36.78640347285856  11.162988308601062  1.5187456875540488  50.011584006608324  13.372436150754382  5.469054428012926  -16.375248908164558  36.421409946882456  25.50045600414643  9.962685896090589  120.000000
0.883625468164794  0.000000  0.000000  0.000000  -37.604981213587706  11.647272600410727  2.6946908565242476  50.136545792024386  13.50753762423808  5.641735644260636  -16.563074870897903  38.7003568432782  24.341137814265885  9.589824143538845  120.000000
0.9237902621722847  0.000000  0.000000  0.000000  -38.355583780038145  12.111379162238919  3.9301584017796967  50.30889031320179  13.656321821717643  5.865443627545223  -16.745492029330116  40.869853512118205  23.261538396651158  9.210277613019999  120.000000
0.9639550561797753  0.000000  0.000000  0.000000  -39.033500938297244  12.54787718657648  5.210278697763186  50.51454368363602  13.819028637483004  6.135545028450113  -16.925753209824666  42.91921993751212  22.264729901124735  8.825907416984567  120.000000
1.004119850187266  0.000000  0.000000  0.000000  -39.637498815981154  12.950160735940585  6.517251120123673  50.73942861907991  13.992720653355866  6.445231444644432  -17.108617382996083  44.84131981114659  21.35684577322828  8.443208090216734  120.000000
1.0442846441947566  0.000000  0.000000  0.000000  -40.16944057818543  13.313414550551284  7.8308196866953805  50.970446837623584  14.171457367651676  6.78600438154617  -17.298246905705504  46.63239604057919  20.54520006972828  8.07236411797035  120.000000
